<?xml version="1.0" standalone="no"?><!DOCTYPE svg PUBLIC "-//W3C//DTD SVG 1.1//EN" "http://www.w3.org/Graphics/SVG/1.1/DTD/svg11.dtd"><svg t="1755613788462" class="icon" viewBox="0 0 1024 1024" version="1.1" xmlns="http://www.w3.org/2000/svg" p-id="1523" xmlns:xlink="http://www.w3.org/1999/xlink" width="200" height="200"><path d="M128 128a42.666667 42.666667 0 0 1 42.666667-42.666667h640a42.666667 42.666667 0 0 1 42.666666 42.666667v426.666667h-85.333333V170.666667H213.333333v682.666666h240.426667v85.333334H170.666667a42.666667 42.666667 0 0 1-42.666667-42.666667V128z" fill="#354a53" p-id="1524" data-spm-anchor-id="a313x.collections_detail.0.i9.17c43a81jclAHg" class="selected"></path><path d="M785.664 789.333333l90.517333-90.517333-60.330666-60.330667L725.333333 729.002667l-90.496-90.517334-60.352 60.352L664.981333 789.333333l-90.496 90.496 60.330667 60.352L725.333333 849.664l90.517334 90.517333 60.330666-60.330666L785.664 789.333333z" fill="#8ccccc" p-id="1525" data-spm-anchor-id="a313x.collections_detail.0.i8.17c43a81jclAHg" class=""></path><path d="M682.666667 384H298.666667v-85.333333h384v85.333333zM512 554.666667H298.666667v-85.333334h213.333333v85.333334z" fill="#354a53" p-id="1526" data-spm-anchor-id="a313x.collections_detail.0.i10.17c43a81jclAHg" class="selected"></path></svg>