<?xml version="1.0" standalone="no"?><!DOCTYPE svg PUBLIC "-//W3C//DTD SVG 1.1//EN" "http://www.w3.org/Graphics/SVG/1.1/DTD/svg11.dtd"><svg t="1755613821515" class="icon" viewBox="0 0 1024 1024" version="1.1" xmlns="http://www.w3.org/2000/svg" p-id="1844" xmlns:xlink="http://www.w3.org/1999/xlink" width="200" height="200"><path d="M490.666667 69.717333a42.666667 42.666667 0 0 1 42.666666 0l351.04 202.666667a42.666667 42.666667 0 0 1 21.333334 36.949333v405.333334a42.666667 42.666667 0 0 1-21.333334 36.949333L533.333333 954.282667a42.666667 42.666667 0 0 1-42.666666 0l-351.018667-202.666667a42.666667 42.666667 0 0 1-21.333333-36.949333v-405.333334a42.666667 42.666667 0 0 1 21.333333-36.949333L490.666667 69.717333zM203.648 333.973333v356.053334L512 868.074667l308.373333-178.048v-356.053334L512 155.925333 203.648 333.973333z" fill="#354a53" p-id="1845" data-spm-anchor-id="a313x.collections_detail.0.i13.17c43a81jclAHg" class="selected"></path><path d="M512 469.333333a42.666667 42.666667 0 1 0 0 85.333334 42.666667 42.666667 0 0 0 0-85.333334z m-128 42.666667a128 128 0 1 1 256 0 128 128 0 0 1-256 0z" fill="#8ccccc" p-id="1846" data-spm-anchor-id="a313x.collections_detail.0.i14.17c43a81jclAHg" class=""></path></svg>