<?xml version="1.0" standalone="no"?><!DOCTYPE svg PUBLIC "-//W3C//DTD SVG 1.1//EN" "http://www.w3.org/Graphics/SVG/1.1/DTD/svg11.dtd"><svg t="1755613891775" class="icon" viewBox="0 0 1024 1024" version="1.1" xmlns="http://www.w3.org/2000/svg" p-id="2532" xmlns:xlink="http://www.w3.org/1999/xlink" width="200" height="200"><path d="M721.365333 399.338667L502.357333 667.008a42.666667 42.666667 0 0 1-63.189333 3.157333L302.336 533.333333 362.666667 473.002667l103.509333 103.488 189.162667-231.189334 66.026666 54.037334z" fill="#8ccccc" p-id="2533" data-spm-anchor-id="a313x.collections_detail.0.i20.17c43a81jclAHg" class=""></path><path d="M512 170.666667C323.477333 170.666667 170.666667 323.477333 170.666667 512s152.810667 341.333333 341.333333 341.333333 341.333333-152.810667 341.333333-341.333333S700.522667 170.666667 512 170.666667zM85.333333 512C85.333333 276.352 276.352 85.333333 512 85.333333s426.666667 191.018667 426.666667 426.666667-191.018667 426.666667-426.666667 426.666667S85.333333 747.648 85.333333 512z" fill="#354a53" p-id="2534" data-spm-anchor-id="a313x.collections_detail.0.i21.17c43a81jclAHg" class="selected"></path></svg>