<?xml version="1.0" standalone="no"?><!DOCTYPE svg PUBLIC "-//W3C//DTD SVG 1.1//EN" "http://www.w3.org/Graphics/SVG/1.1/DTD/svg11.dtd"><svg t="1755613868504" class="icon" viewBox="0 0 1024 1024" version="1.1" xmlns="http://www.w3.org/2000/svg" p-id="2188" xmlns:xlink="http://www.w3.org/1999/xlink" width="200" height="200"><path d="M512 170.666667C323.477333 170.666667 170.666667 323.477333 170.666667 512s152.810667 341.333333 341.333333 341.333333 341.333333-152.810667 341.333333-341.333333S700.522667 170.666667 512 170.666667zM85.333333 512C85.333333 276.352 276.352 85.333333 512 85.333333s426.666667 191.018667 426.666667 426.666667-191.018667 426.666667-426.666667 426.666667S85.333333 747.648 85.333333 512z" fill="#354a53" p-id="2189" data-spm-anchor-id="a313x.collections_detail.0.i18.17c43a81jclAHg" class="selected"></path><path d="M405.333333 345.002667L678.997333 618.666667 618.666667 679.04 345.002667 405.333333 405.333333 345.002667z" fill="#8ccccc" p-id="2190" data-spm-anchor-id="a313x.collections_detail.0.i16.17c43a81jclAHg" class=""></path><path d="M345.002667 618.666667L618.666667 345.002667 678.997333 405.333333 405.333333 678.997333 345.002667 618.666667z" fill="#8ccccc" p-id="2191" data-spm-anchor-id="a313x.collections_detail.0.i17.17c43a81jclAHg" class=""></path></svg>